# Blender 4.5.10 LTS
# www.blender.org
mtllib Untitled.mtl
o Cube
v -24.196468 0.399674 -18.664572
v -24.196468 -0.399674 -18.664572
v -24.196468 0.399674 18.664572
v -24.196468 -0.399674 18.664572
v 24.196468 0.399674 -18.664572
v 24.196468 -0.399674 -18.664572
v 24.196468 0.399674 18.664572
v 24.196468 -0.399674 18.664572
vn -0.0165 0.9996 -0.0214
vn -0.0165 -0.9996 -0.0214
vn -0.0165 0.9996 0.0214
vn -0.0165 -0.9996 0.0214
vn 0.0165 0.9996 -0.0214
vn 0.0165 -0.9996 -0.0214
vn 0.0165 0.9996 0.0214
vn 0.0165 -0.9996 0.0214
vt 0.625000 0.500000
vt 0.875000 0.500000
vt 0.875000 0.750000
vt 0.625000 0.750000
vt 0.375000 0.750000
vt 0.625000 1.000000
vt 0.375000 1.000000
vt 0.375000 0.000000
vt 0.625000 0.000000
vt 0.625000 0.250000
vt 0.375000 0.250000
vt 0.125000 0.500000
vt 0.375000 0.500000
vt 0.125000 0.750000
s 1
usemtl Material
f 1/1/1 3/4/3 7/3/7 5/2/5
f 4/5/4 8/7/8 7/6/7 3/4/3
f 8/8/8 6/11/6 5/10/5 7/9/7
f 6/12/6 8/14/8 4/5/4 2/13/2
f 2/13/2 4/5/4 3/4/3 1/1/1
f 6/11/6 2/13/2 1/1/1 5/10/5
o Cube.001
v -60.653980 22.064861 -45.260368
v -60.653980 21.442123 -45.761520
v -60.653980 -1.338792 -16.178860
v -60.653980 -1.961528 -16.680014
v -12.261044 22.064861 -45.260368
v -12.261044 21.442123 -45.761520
v -12.261044 -1.338792 -16.178860
v -12.261044 -1.961528 -16.680014
vn -0.0165 0.7922 0.6100
vn -0.0165 -0.7654 -0.6434
vn -0.0165 0.7654 0.6434
vn -0.0165 -0.7922 -0.6100
vn 0.0165 0.7922 0.6100
vn 0.0165 -0.7654 -0.6434
vn 0.0165 0.7654 0.6434
vn 0.0165 -0.7922 -0.6100
vt 0.625000 0.500000
vt 0.875000 0.500000
vt 0.875000 0.750000
vt 0.625000 0.750000
vt 0.375000 0.750000
vt 0.625000 1.000000
vt 0.375000 1.000000
vt 0.375000 0.000000
vt 0.625000 0.000000
vt 0.625000 0.250000
vt 0.375000 0.250000
vt 0.125000 0.500000
vt 0.375000 0.500000
vt 0.125000 0.750000
s 1
usemtl Material.001
f 9/15/9 11/18/11 15/17/15 13/16/13
f 12/19/12 16/21/16 15/20/15 11/18/11
f 16/22/16 14/25/14 13/24/13 15/23/15
f 14/26/14 16/28/16 12/19/12 10/27/10
f 10/27/10 12/19/12 11/18/11 9/15/9
f 14/25/14 10/27/10 9/15/9 13/24/13
o Cube.002
v -60.653980 22.064861 -45.260368
v -60.653980 21.442123 -45.761520
v -60.653980 -1.338792 -16.178860
v -60.653980 -1.961528 -16.680014
v -12.261044 22.064861 -45.260368
v -12.261044 21.442123 -45.761520
v -12.261044 -1.338792 -16.178860
v -12.261044 -1.961528 -16.680014
vn -0.0165 0.7922 0.6100
vn -0.0165 -0.7654 -0.6434
vn -0.0165 0.7654 0.6434
vn -0.0165 -0.7922 -0.6100
vn 0.0165 0.7922 0.6100
vn 0.0165 -0.7654 -0.6434
vn 0.0165 0.7654 0.6434
vn 0.0165 -0.7922 -0.6100
vt 0.625000 0.500000
vt 0.875000 0.500000
vt 0.875000 0.750000
vt 0.625000 0.750000
vt 0.375000 0.750000
vt 0.625000 1.000000
vt 0.375000 1.000000
vt 0.375000 0.000000
vt 0.625000 0.000000
vt 0.625000 0.250000
vt 0.375000 0.250000
vt 0.125000 0.500000
vt 0.375000 0.500000
vt 0.125000 0.750000
s 1
usemtl Material.002
f 17/29/17 19/32/19 23/31/23 21/30/21
f 20/33/20 24/35/24 23/34/23 19/32/19
f 24/36/24 22/39/22 21/38/21 23/37/23
f 22/40/22 24/42/24 20/33/20 18/41/18
f 18/41/18 20/33/20 19/32/19 17/29/17
f 22/39/22 18/41/18 17/29/17 21/38/21
o Cube.003
v -117.036835 24.334127 44.932800
v -117.036835 25.042929 44.563263
v -117.036827 7.076979 11.832106
v -117.036827 7.785780 11.462568
v -68.643898 24.334108 44.932816
v -68.643898 25.042910 44.563278
v -68.643890 7.076960 11.832121
v -68.643890 7.785761 11.462584
vn -0.0165 -0.8765 0.4811
vn -0.0165 0.8963 -0.4431
vn -0.0165 -0.8963 0.4431
vn -0.0165 0.8765 -0.4811
vn 0.0165 -0.8765 0.4811
vn 0.0165 0.8963 -0.4431
vn 0.0165 -0.8963 0.4431
vn 0.0165 0.8765 -0.4811
vt 0.625000 0.500000
vt 0.875000 0.500000
vt 0.875000 0.750000
vt 0.625000 0.750000
vt 0.375000 0.750000
vt 0.625000 1.000000
vt 0.375000 1.000000
vt 0.375000 0.000000
vt 0.625000 0.000000
vt 0.625000 0.250000
vt 0.375000 0.250000
vt 0.125000 0.500000
vt 0.375000 0.500000
vt 0.125000 0.750000
s 1
usemtl Material.003
f 25/43/25 27/46/27 31/45/31 29/44/29
f 28/47/28 32/49/32 31/48/31 27/46/27
f 32/50/32 30/53/30 29/52/29 31/51/31
f 30/54/30 32/56/32 28/47/28 26/55/26
f 26/55/26 28/47/28 27/46/27 25/43/25
f 30/53/30 26/55/26 25/43/25 29/52/29
o Cube.004
v -174.334869 28.738815 5.603019
v -174.334869 29.492714 5.868716
v -174.334869 41.146751 -29.603626
v -174.334869 41.900650 -29.337929
v -125.941925 28.738808 5.603011
v -125.941925 29.492706 5.868709
v -125.941933 41.146744 -29.603634
v -125.941933 41.900642 -29.337936
vn -0.0165 -0.9499 -0.3121
vn -0.0165 0.9357 0.3525
vn -0.0165 -0.9357 -0.3525
vn -0.0165 0.9499 0.3121
vn 0.0165 -0.9499 -0.3121
vn 0.0165 0.9357 0.3525
vn 0.0165 -0.9357 -0.3525
vn 0.0165 0.9499 0.3121
vt 0.625000 0.500000
vt 0.875000 0.500000
vt 0.875000 0.750000
vt 0.625000 0.750000
vt 0.375000 0.750000
vt 0.625000 1.000000
vt 0.375000 1.000000
vt 0.375000 0.000000
vt 0.625000 0.000000
vt 0.625000 0.250000
vt 0.375000 0.250000
vt 0.125000 0.500000
vt 0.375000 0.500000
vt 0.125000 0.750000
s 1
usemtl Material.004
f 33/57/33 35/60/35 39/59/39 37/58/37
f 36/61/36 40/63/40 39/62/39 35/60/35
f 40/64/40 38/67/38 37/66/37 39/65/39
f 38/68/38 40/70/40 36/61/36 34/69/34
f 34/69/34 36/61/36 35/60/35 33/57/33
f 38/67/38 34/69/34 33/57/33 37/66/37
o Cube.005
v -266.181641 114.550499 52.350052
v -266.181641 115.349777 52.360748
v -266.181641 115.049934 15.024248
v -266.181641 115.849213 15.034945
v -217.788712 114.550491 52.350044
v -217.788712 115.349770 52.360741
v -217.788712 115.049927 15.024240
v -217.788712 115.849205 15.034937
vn -0.0165 -0.9998 0.0080
vn -0.0165 0.9993 0.0348
vn -0.0165 -0.9993 -0.0348
vn -0.0165 0.9998 -0.0080
vn 0.0165 -0.9998 0.0080
vn 0.0165 0.9993 0.0348
vn 0.0165 -0.9993 -0.0348
vn 0.0165 0.9998 -0.0080
vt 0.625000 0.500000
vt 0.875000 0.500000
vt 0.875000 0.750000
vt 0.625000 0.750000
vt 0.375000 0.750000
vt 0.625000 1.000000
vt 0.375000 1.000000
vt 0.375000 0.000000
vt 0.625000 0.000000
vt 0.625000 0.250000
vt 0.375000 0.250000
vt 0.125000 0.500000
vt 0.375000 0.500000
vt 0.125000 0.750000
s 1
usemtl Material.005
f 41/71/41 43/74/43 47/73/47 45/72/45
f 44/75/44 48/77/48 47/76/47 43/74/43
f 48/78/48 46/81/46 45/80/45 47/79/47
f 46/82/46 48/84/48 44/75/44 42/83/42
f 42/83/42 44/75/44 43/74/43 41/71/41
f 46/81/46 42/83/42 41/71/41 45/80/45
o Cube.006
v -660.018250 0.317051 52.361347
v -660.018250 1.116189 52.343040
v -660.018250 -0.537865 15.041992
v -660.018250 0.261272 15.023685
v -353.760193 0.317005 52.361301
v -353.760193 1.116143 52.342995
v -353.760193 -0.537911 15.041946
v -353.760193 0.261226 15.023640
vn -0.0026 -0.9990 0.0443
vn -0.0026 1.0000 -0.0015
vn -0.0026 -1.0000 0.0015
vn -0.0026 0.9990 -0.0443
vn 0.0026 -0.9990 0.0443
vn 0.0026 1.0000 -0.0015
vn 0.0026 -1.0000 0.0015
vn 0.0026 0.9990 -0.0443
vt 0.625000 0.500000
vt 0.875000 0.500000
vt 0.875000 0.750000
vt 0.625000 0.750000
vt 0.375000 0.750000
vt 0.625000 1.000000
vt 0.375000 1.000000
vt 0.375000 0.000000
vt 0.625000 0.000000
vt 0.625000 0.250000
vt 0.375000 0.250000
vt 0.125000 0.500000
vt 0.375000 0.500000
vt 0.125000 0.750000
s 1
usemtl Material.006
f 49/85/49 51/88/51 55/87/55 53/86/53
f 52/89/52 56/91/56 55/90/55 51/88/51
f 56/92/56 54/95/54 53/94/53 55/93/55
f 54/96/54 56/98/56 52/89/52 50/97/50
f 50/97/50 52/89/52 51/88/51 49/85/49
f 54/95/54 50/97/50 49/85/49 53/94/53
o Cube.007
v -206.939438 149.611420 52.350052
v -206.140610 149.638184 52.360748
v -206.440292 149.628143 15.024248
v -205.641464 149.654907 15.034945
v -205.319504 101.245605 52.350044
v -204.520676 101.272362 52.360741
v -204.820358 101.262329 15.024240
v -204.021530 101.289085 15.034937
vn -0.9998 -0.0170 0.0080
vn 0.9981 0.0500 0.0348
vn -0.9993 -0.0169 -0.0348
vn 0.9987 0.0500 -0.0080
vn -0.9987 -0.0500 0.0080
vn 0.9993 0.0169 0.0348
vn -0.9981 -0.0500 -0.0348
vn 0.9998 0.0170 -0.0080
vt 0.625000 0.500000
vt 0.875000 0.500000
vt 0.875000 0.750000
vt 0.625000 0.750000
vt 0.375000 0.750000
vt 0.625000 1.000000
vt 0.375000 1.000000
vt 0.375000 0.000000
vt 0.625000 0.000000
vt 0.625000 0.250000
vt 0.375000 0.250000
vt 0.125000 0.500000
vt 0.375000 0.500000
vt 0.125000 0.750000
s 1
usemtl Material.007
f 57/99/57 59/102/59 63/101/63 61/100/61
f 60/103/60 64/105/64 63/104/63 59/102/59
f 64/106/64 62/109/62 61/108/61 63/107/63
f 62/110/62 64/112/64 60/103/60 58/111/58
f 58/111/58 60/103/60 59/102/59 57/99/57
f 62/109/62 58/111/58 57/99/57 61/108/61
